<?xml version="1.0" encoding="UTF-8"?>
<!-- Generated by Pixelmator Pro 3.7 -->
<svg width="4859" height="781" viewBox="0 0 4859 781" xmlns="http://www.w3.org/2000/svg">
    <g id="Group-copy">
        <path id="Path" fill="#6e96c6" stroke="#30343d" stroke-width="7.343872" d="M 4429.745605 260.35791 C 4439.46875 267.836304 4452.696777 264.659607 4457.591309 252.614624 C 4461.824219 241.628601 4458.914063 228.789429 4448.529785 223.097839 C 4446.611816 221.774231 4443.966309 221.509399 4440.65918 222.30365 C 4428.422852 226.142151 4420.750977 242.488892 4425.64502 254.335388 C 4426.504883 256.651672 4427.894043 258.76947 4429.745605 260.424011 L 4429.745605 260.35791 Z"/>
        <path id="path1" fill="#6e96c6" stroke="#30343d" stroke-width="7.343872" d="M 4791.740723 420.847382 C 4801.463379 428.325867 4814.691406 425.14917 4819.586426 413.104187 C 4823.818848 402.118073 4820.908691 389.278931 4810.524902 383.587341 C 4808.606934 382.263702 4805.960938 381.998993 4802.653809 382.793182 C 4790.417969 386.631683 4782.746094 402.978455 4787.640137 414.82489 C 4788.5 417.141235 4789.888672 419.259033 4791.740723 420.913574 L 4791.740723 420.847382 Z"/>
        <path id="path2" fill="#6e96c6" stroke="#30343d" stroke-width="7.343872" d="M 4702.583496 496.624268 L 4712.702637 472.865173 C 4686.3125 460.952576 4624.007813 433.156433 4616.071289 432.428467 L 4609.854004 457.180267 C 4615.475586 458.172943 4661.840332 478.22583 4702.648926 496.624268 L 4702.583496 496.624268 Z"/>
        <path id="path3" fill="#6e96c6" stroke="#30343d" stroke-width="7.343872" d="M 4439.73291 389.012878 C 4460.832031 397.616455 4523.665527 421.904968 4531.800781 425.015472 L 4541.325195 400.991669 C 4504.617188 386.828888 4448.397461 364.922882 4443.701172 362.67276 L 4433.251465 386.299469 C 4434.177246 386.762726 4436.42627 387.68927 4439.73291 389.012878 Z"/>
        <path id="path4" fill="#f7cf47" stroke="#30343d" stroke-width="11.115048" d="M 4678.904785 192.918457 L 4843 259.629211 L 4753.24707 480.542236 L 4589.217773 413.831512 L 4425.188965 347.120789 L 4514.875977 126.207825 L 4678.904785 192.918457 Z"/>
        <path id="path5" fill="none" stroke="#30343d" stroke-width="8.667091" d="M 4678.904785 192.918457 L 4589.217773 413.831512"/>
        <path id="path6" fill="#ffffff" stroke="none" d="M 4763.035645 355.063904 C 4768.591797 344.342529 4775.271973 326.936859 4778.64502 316.215485 C 4782.746094 302.979248 4782.415039 297.817108 4758.935059 287.956055 C 4746.302246 282.661591 4731.486816 276.242065 4701.392578 266.182495 C 4682.07959 259.696716 4679.235352 264.660339 4673.87793 273.66095 C 4669.975586 280.21286 4662.898926 295.302185 4658.930176 310.920959 C 4655.953613 322.635071 4652.845215 329.915009 4670.835449 337.393463 C 4689.35498 345.070526 4707.543945 352.615173 4729.436523 360.95401 C 4748.550781 368.30014 4755.694336 369.226685 4762.969238 355.130066 L 4763.035645 355.063904 Z"/>
        <path id="path7" fill="#ffffff" stroke="none" d="M 4605.217285 291.661591 C 4610.772949 280.940247 4617.453125 263.534546 4620.82666 252.813232 C 4624.927246 239.576965 4624.59668 234.414795 4601.116699 224.553833 C 4588.483398 219.259277 4573.667969 212.839722 4543.574219 202.780151 C 4524.26123 196.294373 4521.416992 201.257996 4516.05957 210.258606 C 4512.157227 216.810608 4505.080078 231.899902 4501.111816 247.518677 C 4498.135742 259.232788 4495.026855 266.512695 4513.01709 273.991211 C 4531.536621 281.668213 4549.725098 289.212921 4571.617676 297.551727 C 4590.732422 304.897827 4597.875488 305.824371 4605.151367 291.727722 L 4605.217285 291.661591 Z"/>
        <path id="path8" fill="#231f20" stroke="none" d="M 4555.611816 272.204987 C 4565.730957 278.889252 4578.76123 274.852203 4582.993652 262.608704 C 4586.565918 251.490234 4582.928223 238.981995 4572.213379 234.084534 C 4570.228516 232.893311 4567.583496 232.827087 4564.342285 233.819824 C 4552.304688 238.452515 4545.624512 255.130188 4551.180176 266.447144 C 4552.172363 268.697327 4553.693359 270.616608 4555.611816 272.138733 L 4555.611816 272.204987 Z"/>
        <path id="path9" fill="#231f20" stroke="none" d="M 4700.797363 331.173126 C 4710.916504 337.857391 4723.946777 333.820374 4728.179688 321.576843 C 4731.750977 310.458344 4728.11377 297.950104 4717.398926 293.052765 C 4715.414551 291.86145 4712.769043 291.795288 4709.527832 292.787964 C 4697.490234 297.420685 4690.810059 314.098328 4696.366211 325.415375 C 4697.35791 327.665527 4698.879395 329.584717 4700.797363 331.106964 L 4700.797363 331.173126 Z"/>
        <path id="path10" fill="none" stroke="#30343d" stroke-width="8.667091" d="M 4656.681641 373.924896 C 4624.07373 369.95401 4581.810059 350.761444 4567.325195 336.995728"/>
        <path id="path11" fill="none" stroke="#ffffff" stroke-width="10.453439" stroke-dasharray="26.199758 20.973039" stroke-dashoffset="0" d="M 4394.228027 490.402557 C 4145.406738 553.671814 3867.814209 490.204041 3671.111084 325.14798 C 3528.908447 205.823181 3398.743652 25.876099 3213.483398 37.523987 C 3126.574463 42.950867 3048.726807 92.653259 2981.79248 148.377869 C 2923.19165 197.219604 2866.70752 256.981262 2853.611572 332.163177 C 2840.515625 407.345093 2883.573242 516.080872 2966.645996 499.469421 C 3049.71875 482.791718 3057.5896 378.423889 3057.5896 290.601349 C 3057.5896 195.631287 2990.98584 65.981934 2909.764893 32.758972 C 2868.69165 15.948914 2822.657715 16.015076 2778.673828 21.640503 C 2604.260742 44.009766 2451.078857 148.311646 2320.120117 265.717224 C 2189.095215 383.122742 2072.026123 516.941284 1928.699097 618.926514 C 1785.37207 720.913208 1606.130615 789.609314 1434.098511 753.143433 C 1262.066406 716.611389 1056.765503 504.300629 1144.53418 374.254486 C 1175.752686 328.059967 1248.639771 305.29361 1297.914673 314.360382 C 1347.189453 323.427307 1421.002563 385.24057 1376.754395 453.208679 C 1266.299316 622.963623 790.681213 607.675781 539.677673 490.667297 C 357.988953 405.955261 182.385269 308.139404 14.718383 198.212341"/>
    </g>
</svg>
